<svg xmlns="http://www.w3.org/2000/svg" xmlns:xlink="http://www.w3.org/1999/xlink" width="96" height="30" viewBox="0 0 96 30">
  <defs>
    <style>
      .cls-1, .cls-5 {
        fill: #fff;
      }

      .cls-1 {
        stroke: #707070;
      }

      .cls-2 {
        clip-path: url(#clip-path);
      }

      .cls-3 {
        fill: #151d24;
      }

      .cls-4 {
        fill: url(#linear-gradient);
      }
    </style>
    <clipPath id="clip-path">
      <rect id="사각형_8" data-name="사각형 8" class="cls-1" width="96" height="30" transform="translate(364 11)"/>
    </clipPath>
    <linearGradient id="linear-gradient" x1="0.968" y1="0.893" x2="0.032" y2="0.107" gradientUnits="objectBoundingBox">
      <stop offset="0" stop-color="#53bdb5"/>
      <stop offset="1" stop-color="#cce8e4"/>
    </linearGradient>
  </defs>
  <g id="img_logo_gnb" class="cls-2" transform="translate(-364 -11)">
    <g id="_레이어_1-2" transform="translate(364 11.064)">
      <g id="그룹_7" data-name="그룹 7">
        <g id="그룹_6" data-name="그룹 6" transform="translate(35.886 6.318)">
          <path id="패스_7" data-name="패스 7" class="cls-3" d="M78.137,15.655A3.9,3.9,0,0,0,75.1,14.072c-5.6,0-5.513,5.968-5.513,5.968a5.637,5.637,0,0,0,5.159,5.954,3.52,3.52,0,0,0,3.344-1.5v1.2h3.542V14.349h-3.5v1.306Zm-2.356,6.969a2.578,2.578,0,1,1,2.424-2.573A2.5,2.5,0,0,1,75.781,22.624Z" transform="translate(-49.834 -9.139)"/>
          <path id="패스_8" data-name="패스 8" class="cls-3" d="M94.512,12.833a3.808,3.808,0,0,0-3.04,1.416V7.9h-3.63V24.373h3.542V23.251a3.384,3.384,0,0,0,3.07,1.521s5.019.22,5.433-5.773c0,0,.413-5.756-5.371-6.169Zm-.81,8.556a2.578,2.578,0,1,1,2.424-2.573A2.5,2.5,0,0,1,93.7,21.389Z" transform="translate(-53.492 -7.902)"/>
          <path id="패스_9" data-name="패스 9" class="cls-3" d="M110.8,14.1a5.963,5.963,0,1,0,6.13,5.961A6.047,6.047,0,0,0,110.8,14.1Zm0,8.534a2.578,2.578,0,1,1,2.424-2.573A2.5,2.5,0,0,1,110.8,22.631Z" transform="translate(-56.864 -9.144)"/>
          <path id="패스_10" data-name="패스 10" class="cls-3" d="M59.029,14.085a3.966,3.966,0,0,0-3.786,1.949,3.583,3.583,0,0,0-3.432-1.959S49.353,14,48.4,15.856V14.374h-3.52V25.687h3.63V19.222a1.822,1.822,0,0,1,1.927-1.7,1.713,1.713,0,0,1,1.683,1.7v6.465h3.63V19.156a1.925,1.925,0,0,1,2.082-1.7A1.7,1.7,0,0,1,59.45,19.2v6.487h3.586V18.38s.154-4.3-4.007-4.3Z" transform="translate(-44.881 -9.139)"/>
        </g>
        <path id="패스_11" data-name="패스 11" class="cls-4" d="M23.32,30.255H6.935A6.934,6.934,0,0,1,0,23.32V6.935A6.934,6.934,0,0,1,6.935,0H23.32a6.934,6.934,0,0,1,6.935,6.935V23.32a6.934,6.934,0,0,1-6.935,6.935Z"/>
        <path id="패스_12" data-name="패스 12" class="cls-5" d="M18.289,8.446H15.916C12.066,8.446,9.8,11,9.8,14.765v1.211a3.934,3.934,0,0,0,4.256,3.884H18a.255.255,0,0,1,.2.093.291.291,0,0,1,.051.24c-.448,1.737-3.212,2.03-4.144,2.079q-.752.026-1.624.027c-.746,0-1.013.113-1.013.974v.137c.037.377.3,1.592,2.13,1.786,6.636-.091,10.789-1.1,10.789-9.469v-.959a6.4,6.4,0,0,0-6.1-6.318Zm-4.068,6.771a.879.879,0,1,1-1.759,0v-.871a.879.879,0,1,1,1.759,0Zm5.232,0a.879.879,0,1,1-1.759,0v-.871a.879.879,0,1,1,1.759,0Z" transform="translate(-1.964 -1.693)"/>
      </g>
    </g>
  </g>
</svg>
